<svg height="512" viewBox="0 0 512 512" width="512" xmlns="http://www.w3.org/2000/svg"><g id="Flat"><path d="m1.373 480h45.255v16h-45.255z" fill="#b0b0ae" transform="matrix(.707 -.707 .707 .707 -338.053 159.918)"/><path d="m74.177 290.745h203.647v90.51h-203.647z" fill="#34507b" transform="matrix(.707 -.707 .707 .707 -186.039 222.863)"/><g fill="#22334f"><path d="m200 248-24 24 8 56 24-24z"/><path d="m184 328 56 8 24-24-56-8z"/><path d="m131.029 309.373h33.941v45.255h-33.941z" transform="matrix(.707 -.707 .707 .707 -191.411 201.892)"/><path d="m163.029 341.373h33.941v45.255h-33.941z" transform="matrix(.707 -.707 .707 .707 -204.666 233.892)"/></g><path d="m27.716 439.029h56.569v33.941h-56.569z" fill="#bfbfbd" transform="matrix(.707 -.707 .707 .707 -306.039 173.157)"/><path d="m224 64-6.086-30.431a8 8 0 0 1 7.844-9.569h33.3a8 8 0 0 1 7.155 4.422l5.787 11.578 9.016-3.005a11.384 11.384 0 0 1 14.984 10.805 11.385 11.385 0 0 1 -7.784 10.8l-16.216 5.4z" fill="#fec9a3"/><path d="m448 240v48l-9.12-2.28a204.215 204.215 0 0 1 -94.88-53.72l-64 64-29.54-29.54-34.46-34.46 64-64a204.269 204.269 0 0 1 -53.72-94.88l-2.28-9.12h48l5.27 15.8a143.711 143.711 0 0 0 34.73 56.2l64 64a143.77 143.77 0 0 0 56.2 34.73z" fill="#f35244"/><path d="m448 240v48l-9.12-2.28a204.215 204.215 0 0 1 -94.88-53.72l-64 64-29.54-29.54a466.524 466.524 0 0 0 108.33-83.67l17.21 17.21a143.77 143.77 0 0 0 56.2 34.73z" fill="#e64c3f"/><path d="m448 288 30.431 6.086a8 8 0 0 0 9.569-7.844v-33.3a8 8 0 0 0 -4.422-7.155l-11.578-5.787 3-9.016a11.384 11.384 0 0 0 -10.795-14.984 11.385 11.385 0 0 0 -10.8 7.784l-5.405 16.216z" fill="#fec9a3"/><path d="m432 119.6a39.558 39.558 0 0 1 -11.6 28q-2.22 2.22-4.62 4.18a63.063 63.063 0 0 1 -24.8 12.47l-14.98 3.75-32-32 3.75-14.98a63.063 63.063 0 0 1 12.47-24.8q1.965-2.4 4.18-4.62a39.6 39.6 0 0 1 67.6 28z" fill="#7a432a"/><path d="m340.686 137.373h22.627v45.255h-22.627z" fill="#f35244" transform="matrix(.707 -.707 .707 .707 -10.039 295.765)"/><path d="m447.78 112.43a48.7 48.7 0 0 1 -3.68 18.52 48.432 48.432 0 0 1 -10.51 15.72 75.506 75.506 0 0 1 -5.65 5.11l-67.94-67.94a75.506 75.506 0 0 1 5.11-5.65 48.4 48.4 0 0 1 82.67 34.24z" fill="#ffb531"/><path d="m447.78 112.43a48.7 48.7 0 0 1 -3.68 18.52 48.432 48.432 0 0 1 -10.51 15.72 75.506 75.506 0 0 1 -5.65 5.11l-34.42-34.42a457.747 457.747 0 0 0 46.93-30.56 47.952 47.952 0 0 1 6.6 17.2 48.852 48.852 0 0 1 .73 8.43z" fill="#fcac1f"/><path d="m243.029 206.745h33.941v90.51h-33.941z" fill="#22334f" transform="matrix(.707 -.707 .707 .707 -102.039 257.657)"/><path d="m408 64.77v23.23h-16v-23.44a48.76 48.76 0 0 1 16 .21z" fill="#f98500"/><path d="m447.78 112.43a47.714 47.714 0 0 1 -.6 7.57h-23.18v-16h23.05a48.852 48.852 0 0 1 .73 8.43z" fill="#f98500"/><path d="m58.177 344h203.646v16h-203.646z" fill="#2b4266" transform="matrix(.707 -.707 .707 .707 -202.044 216.251)"/><rect fill="#6e3c26" height="45.255" rx="22.627" transform="matrix(.707 -.707 .707 .707 -268.666 207.383)" width="79.196" x="76.402" y="405.373"/><rect fill="#7a432a" height="45.255" rx="22.627" transform="matrix(.707 -.707 .707 .707 -255.411 175.383)" width="79.196" x="44.402" y="373.373"/></g></svg>