<svg height="512" viewBox="0 0 74 74" width="512" xmlns="http://www.w3.org/2000/svg"><g id="color_line" data-name="color line"><path d="m68.3 44.007h-46.41a3.016 3.016 0 0 1 -1.43-.37l-12.07-6.71a2.171 2.171 0 0 1 -1.12-1.9v-1.81l11.8-2.31h34.52a20.236 20.236 0 0 1 7.39 1.3c4.05 1.54 6.67 3.53 8.35 5.8v.01a12.322 12.322 0 0 1 1.41 2.41 2.631 2.631 0 0 1 -2.44 3.58z" fill="#eeefee"/><path d="m68.3 44.007h-.13a3 3 0 0 0 -.18-.91 12.32 12.32 0 0 0 -1.41-2.41v-.01c-1.68-2.27-4.3-4.26-8.35-5.8a20.236 20.236 0 0 0 -7.39-1.3h-34.52l-9.02 1.77a1.654 1.654 0 0 1 -.03-.32v-1.81l11.8-2.31h34.52a20.236 20.236 0 0 1 7.39 1.3c4.05 1.54 6.67 3.53 8.35 5.8v.01a12.322 12.322 0 0 1 1.41 2.41 2.631 2.631 0 0 1 -2.44 3.58z" fill="#e1e6e9"/><path d="m69.33 38.007v.01h-11.1a4.678 4.678 0 0 1 -4.66-4.69v-2.42h.02a20.236 20.236 0 0 1 7.39 1.3c4.05 1.54 6.67 3.53 8.35 5.8z" fill="#89c5cd"/><g fill="#323c6b"><path d="m69.33 38.518h-11.1a5.181 5.181 0 0 1 -5.16-5.19v-2.42a.5.5 0 0 1 .5-.5 20.743 20.743 0 0 1 7.592 1.334 18.3 18.3 0 0 1 8.57 5.968.5.5 0 0 1 .1.3v.01a.5.5 0 0 1 -.502.498zm-15.26-7.106v1.916a4.18 4.18 0 0 0 4.16 4.19h10.07a18.217 18.217 0 0 0 -7.5-4.843 19.469 19.469 0 0 0 -6.73-1.263z"/><path d="m31.857 36.086a.5.5 0 0 1 -.5-.5v-.866a.5.5 0 1 1 1 0v.867a.5.5 0 0 1 -.5.499z"/><path d="m35.815 36.086a.5.5 0 0 1 -.5-.5v-.866a.5.5 0 0 1 1 0v.867a.5.5 0 0 1 -.5.499z"/><path d="m43.732 36.086a.5.5 0 0 1 -.5-.5v-.866a.5.5 0 0 1 1 0v.867a.5.5 0 0 1 -.5.499z"/><path d="m39.774 36.086a.5.5 0 0 1 -.5-.5v-.866a.5.5 0 0 1 1 0v.867a.5.5 0 0 1 -.5.499z"/><path d="m47.69 36.086a.5.5 0 0 1 -.5-.5v-.866a.5.5 0 0 1 1 0v.867a.5.5 0 0 1 -.5.499z"/><path d="m57.181 27.683a.5.5 0 0 1 -.456-.294 1.837 1.837 0 0 0 -2.425-.919.5.5 0 0 1 -.411-.912 2.839 2.839 0 0 1 3.75 1.419.5.5 0 0 1 -.455.706z"/><path d="m67.115 23.953a.5.5 0 0 1 -.456-.294 13.124 13.124 0 0 0 -17.338-6.559.5.5 0 0 1 -.411-.912 14.125 14.125 0 0 1 18.66 7.063.5.5 0 0 1 -.455.706z"/><path d="m62.417 26.071a.5.5 0 0 1 -.457-.294 7.963 7.963 0 0 0 -10.521-3.982.5.5 0 1 1 -.411-.911 8.964 8.964 0 0 1 11.844 4.482.5.5 0 0 1 -.456.706z"/><path d="m17.732 46.055a.494.494 0 0 1 -.242-.063l-6.42-3.566a.5.5 0 0 1 .485-.874l6.42 3.566a.5.5 0 0 1 -.243.937z"/><path d="m9.141 41.282a.494.494 0 0 1 -.242-.063l-.45-.25a.5.5 0 0 1 .485-.874l.45.25a.5.5 0 0 1 -.243.937z"/><path d="m42.795 28.409h-10a.5.5 0 0 1 0-1h10a.5.5 0 0 1 0 1z"/><path d="m45.378 28.409h-.667a.5.5 0 0 1 0-1h.667a.5.5 0 0 1 0 1z"/><path d="m68.3 44.507h-46.41a3.5 3.5 0 0 1 -1.669-.431l-12.075-6.712a2.667 2.667 0 0 1 -1.376-2.337v-1.81a.5.5 0 0 1 .4-.491l11.8-2.31 34.6-.009a20.743 20.743 0 0 1 7.592 1.334 18.3 18.3 0 0 1 8.57 5.968.521.521 0 0 1 .041.064 12.935 12.935 0 0 1 1.424 2.45 3.154 3.154 0 0 1 -.334 2.933 3.109 3.109 0 0 1 -2.563 1.351zm-60.53-10.879v1.4a1.667 1.667 0 0 0 .861 1.462l12.069 6.71a2.529 2.529 0 0 0 1.187.307h46.413a2.084 2.084 0 0 0 1.738-.917 2.117 2.117 0 0 0 .235-1.983 11.882 11.882 0 0 0 -1.343-2.288.522.522 0 0 1 -.043-.068 17.4 17.4 0 0 0 -8.087-5.576 19.715 19.715 0 0 0 -7.212-1.268h-34.518z"/></g><path d="m25.606 42.193-7.616 13.207a1.569 1.569 0 0 0 .863 2.272l5.5 1.83a1.569 1.569 0 0 0 1.641-.417l15.442-16.5a1.778 1.778 0 0 0 -1.466-2.985l-12.09 1.133a2.942 2.942 0 0 0 -2.274 1.46z" fill="#fe7058"/><path d="m19.068 30.909-9.668-8.816a2.741 2.741 0 0 0 -1.918-.782h-3.382a1.175 1.175 0 0 0 -1.08 1.636l4.246 10.273z" fill="#fe7058"/><path d="m41.43 42.587-15.44 16.5a1.572 1.572 0 0 1 -1.64.42l-1.6-.53 15.33-16.39a1.785 1.785 0 0 0 -.41-2.77l2.3-.22a1.779 1.779 0 0 1 1.46 2.99z" fill="#ea6453"/><path d="m19.07 30.907-11.8 2.31-.07-.18 8.52-1.67-9.67-8.82a2.742 2.742 0 0 0 -1.92-.78h-.96a1.146 1.146 0 0 1 .93-.46h3.38a2.708 2.708 0 0 1 1.92.79z" fill="#ea6453"/><path d="m24.843 60.085a2.057 2.057 0 0 1 -.65-.1l-5.493-1.835a2.069 2.069 0 0 1 -1.139-3l7.616-13.21a3.447 3.447 0 0 1 2.661-1.708l12.085-1.132a2.278 2.278 0 0 1 1.877 3.827l-15.442 16.5a2.076 2.076 0 0 1 -1.515.658zm1.2-17.643-7.616 13.21a1.069 1.069 0 0 0 .588 1.548l5.5 1.831a1.069 1.069 0 0 0 1.118-.284l15.442-16.5a1.277 1.277 0 0 0 -1.058-2.147l-12.09 1.133a2.444 2.444 0 0 0 -1.888 1.211z" fill="#323c6b"/><path d="m7.266 33.72a.5.5 0 0 1 -.462-.309l-4.25-10.273a1.674 1.674 0 0 1 1.546-2.327h3.382a3.223 3.223 0 0 1 2.267.925l9.656 8.8a.5.5 0 0 1 -.241.86l-11.8 2.311a.5.5 0 0 1 -.098.013zm-3.166-11.909a.674.674 0 0 0 -.621.939l4.1 9.9 10.421-2.041-8.937-8.147a2.24 2.24 0 0 0 -1.581-.652z" fill="#323c6b"/></g></svg>